<?xml version="1.0" encoding="utf-8"?>
<svg
    width="32" height="32" viewBox="0 0 32 32" fill="none"
    xmlns="http://www.w3.org/2000/svg">
    <path
        d="M12 3C6.477 3 2 7.477 2 13C2 14.633 2.39966 16.1698 3.09375 17.5312L2 23L7.46875 21.9062C8.83017 22.6003 10.367 23 12 23C17.523 23 22 18.523 22 13C22 7.477 17.523 3 12 3ZM22.3574 9.29102C22.7724 10.45 23 11.6985 23 13C23 14.0135 22.873 15.022 22.627 16H25.5V18H21.9346C21.5376 18.8875 21.0304 19.7285 20.4199 20.5H25.5V22.5H18.3789C16.6749 23.799 14.5259 24.6876 11.9629 24.9316C13.7844 27.3956 16.701 29 20 29C21.633 29 23.1698 28.6003 24.5312 27.9062L30 29L28.9062 23.5312C29.6003 22.1698 30 20.633 30 19C30 14.2905 26.7404 10.3525 22.3574 9.29102ZM6.5 10H17.5V12H6.5V10ZM6.5 14.5H14.5V16.5H6.5V14.5Z"
        fill="#8F00FF"/>
</svg>
