<?xml version="1.0" encoding="utf-8"?>
<svg width="26" height="26" viewBox="0 0 26 26" fill="none"
     xmlns="http://www.w3.org/2000/svg">
    <path
        d="M23.8334 13C23.8334 18.9735 18.9735 23.8333 13 23.8333C7.02652 23.8333 2.16669 18.9735 2.16669 13C2.16669 7.0265 7.02652 2.16667 13 2.16667C18.9735 2.16667 23.8334 7.0265 23.8334 13ZM17.0723 11.0484L13.5514 7.79838C13.2405 7.51184 12.7601 7.51184 12.4491 7.79838L8.92831 11.0484C8.59898 11.3533 8.5784 11.8668 8.88227 12.1967C9.18723 12.5266 9.70181 12.5461 10.0306 12.2428L12.1875 10.251V17.6042C12.1875 18.0527 12.5515 18.4167 13 18.4167C13.4485 18.4167 13.8125 18.0527 13.8125 17.6042V10.2516L15.9694 12.2433C16.126 12.3868 16.3237 12.4583 16.5209 12.4583C16.7391 12.4583 16.958 12.3706 17.1183 12.1973C17.4222 11.8668 17.4016 11.3533 17.0723 11.0484Z"
        fill="#D0D0D0"/>
</svg>
