<?xml version="1.0" encoding="utf-8"?>
<svg width="22" height="22" viewBox="0 0 22 22" fill="none" xmlns="http://www.w3.org/2000/svg">
    <path
        d="M11 3.66666C3.66669 3.66666 0.916687 11 0.916687 11C0.916687 11 3.66669 18.3333 11 18.3333C18.3334 18.3333 21.0834 11 21.0834 11C21.0834 11 18.3334 3.66666 11 3.66666ZM11 6.41666C13.5309 6.41666 15.5834 8.46907 15.5834 11C15.5834 13.5309 13.5309 15.5833 11 15.5833C8.4691 15.5833 6.41669 13.5309 6.41669 11C6.41669 8.46907 8.4691 6.41666 11 6.41666ZM11 8.24999C10.2707 8.24999 9.5712 8.53972 9.05548 9.05545C8.53975 9.57117 8.25002 10.2706 8.25002 11C8.25002 11.7293 8.53975 12.4288 9.05548 12.9445C9.5712 13.4603 10.2707 13.75 11 13.75C11.7294 13.75 12.4288 13.4603 12.9446 12.9445C13.4603 12.4288 13.75 11.7293 13.75 11C13.75 10.2706 13.4603 9.57117 12.9446 9.05545C12.4288 8.53972 11.7294 8.24999 11 8.24999Z"
        fill="#A8A8A8"/>
</svg>
