<?xml version="1.0" encoding="utf-8"?>
<svg viewBox="0 2 24 20" xmlns="http://www.w3.org/2000/svg">
    <g fill="currentcolor" data-viewbox="0 0 24 24">
        <path
            d="M12 4.12a1 1 0 00-1 0L5.71 7.5H2.5a1 1 0 00-1 1v7a1 1 0 001 1h3.21L11 19.84a1 1 0 00.54.16 1 1 0 001-1V5a1 1 0 00-.54-.88zM19.57 4.72a1 1 0 10-1.44 1.39 8.5 8.5 0 010 11.78 1 1 0 000 1.42 1 1 0 00.7.27 1 1 0 00.72-.3 10.51 10.51 0 000-14.56z"></path>
        <path
            d="M16.46 7.28a1 1 0 10-1.37 1.45 4.5 4.5 0 010 6.54 1 1 0 101.37 1.45 6.48 6.48 0 000-9.44z"></path>
    </g>
</svg>