<?xml version="1.0" encoding="utf-8"?>
<svg xmlns="http://www.w3.org/2000/svg" viewBox="0 0 64 64" width="512" height="512">
  <linearGradient id="5B4Uk23SdSE1Khf7cs61va" x1="32" x2="32" y1="10.333" y2="53.845" gradientUnits="userSpaceOnUse" spreadMethod="reflect">
    <stop offset="0" stop-color="#1a6dff" />
    <stop offset="1" stop-color="#c822ff" />
  </linearGradient>
  <path fill="url(#5B4Uk23SdSE1Khf7cs61va)" d="M55,43V23.858c1.72-0.447,3-1.999,3-3.858c0-2.206-1.794-4-4-4s-4,1.794-4,4 c0,1.022,0.397,1.946,1.029,2.654l-2.885,4.327l-2.98-2.979c-0.756-0.756-2.074-0.756-2.83,0l-2.367,2.367l-5.267-8.437 C35.494,17.2,36,16.162,36,15c0-2.206-1.794-4-4-4s-4,1.794-4,4c0,1.162,0.505,2.2,1.299,2.931l-5.266,8.438l-2.368-2.368 c-0.779-0.781-2.051-0.781-2.83,0l-2.98,2.98l-2.885-4.327C13.603,21.946,14,21.022,14,20c0-2.206-1.794-4-4-4s-4,1.794-4,4 c0,1.859,1.28,3.411,3,3.858V43c-1.103,0-2,0.897-2,2v2c0,1.103,0.897,2,2,2v4h3c1.641,0,3.088-0.806,4-2.031 C16.912,52.194,18.359,53,20,53s3.088-0.806,4-2.031C24.912,52.194,26.359,53,28,53s3.088-0.806,4-2.031 C32.912,52.194,34.359,53,36,53s3.088-0.806,4-2.031C40.912,52.194,42.359,53,44,53s3.088-0.806,4-2.031 C48.912,52.194,50.359,53,52,53h3v-4c1.103,0,2-0.897,2-2v-2C57,43.897,56.103,43,55,43z M45,43v-5.577 c0-1.387,0.406-2.729,1.176-3.884l6.518-9.776c0.101,0.035,0.202,0.068,0.306,0.095V43H45z M54,18c1.103,0,2,0.897,2,2s-0.897,2-2,2 s-2-0.897-2-2S52.897,18,54,18z M43.751,25.415l3.262,3.262l-2.502,3.752c-0.142,0.213-0.273,0.431-0.396,0.652 c-0.056-0.118-0.114-0.235-0.175-0.352l-2.885-4.621L43.751,25.415z M32,13c1.103,0,2,0.897,2,2s-0.897,2-2,2s-2-0.897-2-2 S30.897,13,32,13z M32,19c0.323,0,0.633-0.049,0.934-0.121l9.271,14.844C42.726,34.719,43,35.84,43,36.963V43H21v-6.039 c0-1.122,0.274-2.241,0.756-3.171l9.309-14.912C31.367,18.951,31.677,19,32,19z M20.251,25.415l2.695,2.695l-2.926,4.688 c-0.048,0.092-0.095,0.185-0.139,0.278c-0.122-0.22-0.253-0.436-0.394-0.646l-2.502-3.753L20.251,25.415z M8,20c0-1.103,0.897-2,2-2 s2,0.897,2,2s-0.897,2-2,2S8,21.103,8,20z M11,23.858c0.104-0.027,0.206-0.06,0.306-0.095l6.518,9.777 C18.594,34.693,19,36.036,19,37.422V43h-8V23.858z M12,51h-1v-2h3.816C14.402,50.162,13.302,51,12,51z M20,51 c-1.302,0-2.402-0.838-2.816-2h5.631C22.402,50.162,21.302,51,20,51z M28,51c-1.302,0-2.402-0.838-2.816-2h5.631 C30.402,50.162,29.302,51,28,51z M36,51c-1.302,0-2.402-0.838-2.816-2h5.631C38.402,50.162,37.302,51,36,51z M44,51 c-1.302,0-2.402-0.838-2.816-2h5.631C46.402,50.162,45.302,51,44,51z M53,51h-1c-1.302,0-2.402-0.838-2.816-2H53V51z M55,47H9v-2h46 V47z" />
  <linearGradient id="5B4Uk23SdSE1Khf7cs61vb" x1="32" x2="32" y1="28.667" y2="39.179" gradientUnits="userSpaceOnUse" spreadMethod="reflect">
    <stop offset="0" stop-color="#6dc7ff" />
    <stop offset="1" stop-color="#e6abff" />
  </linearGradient>
  <path fill="url(#5B4Uk23SdSE1Khf7cs61vb)" d="M35.803,34.589l-3.148,4.08c-0.34,0.441-0.968,0.441-1.308,0l-3.148-4.08 c-0.263-0.341-0.263-0.837,0-1.178l3.148-4.08c0.34-0.441,0.968-0.441,1.308,0l3.148,4.08 C36.066,33.752,36.066,34.248,35.803,34.589z" />
</svg>