<?xml version="1.0" encoding="utf-8"?>
<svg
    width="30" height="20" viewBox="0 0 28 20" fill="none"
    xmlns="http://www.w3.org/2000/svg">
    <path
        d="M9.33335 0.666656C6.75523 0.666656 4.66669 2.7552 4.66669 5.33332C4.66669 7.91145 6.75523 9.99999 9.33335 9.99999C11.9115 9.99999 14 7.91145 14 5.33332C14 2.7552 11.9115 0.666656 9.33335 0.666656ZM21.3334 3.33332C19.4896 3.33332 18 4.82291 18 6.66666C18 8.51041 19.4896 9.99999 21.3334 9.99999C23.1771 9.99999 24.6667 8.51041 24.6667 6.66666C24.6667 4.82291 23.1771 3.33332 21.3334 3.33332ZM21.3334 5.99999C21.7031 5.99999 22 6.29686 22 6.66666C22 7.03645 21.7031 7.33332 21.3334 7.33332C20.9636 7.33332 20.6667 7.03645 20.6667 6.66666C20.6667 6.29686 20.9636 5.99999 21.3334 5.99999ZM9.33335 11.3333C2.75002 11.3333 0.666687 16.125 0.666687 16.125V19.3333H18V16.125C18 16.125 15.9167 11.3333 9.33335 11.3333ZM21.4584 11.3333C19.5104 11.3333 18.1563 12.0312 17.25 12.8333C17.9792 13.651 18.6927 14.4583 18.9584 15C19.3125 14.6042 19.875 14 21.4584 14C23.8125 14 24.4167 15.3333 24.4167 15.3333H19.125C19.1979 15.5 19.3334 15.875 19.3334 15.875V18H27.3334V15.3333C27.3334 15.3333 26.1667 11.3333 21.4584 11.3333Z"
        fill="#A8A8A8"/>
</svg>
