<?xml version="1.0" encoding="utf-8"?>
<svg viewBox="0 2 24 20" xmlns="http://www.w3.org/2000/svg">
    <g fill="currentcolor" data-viewbox="0 0 24 24">
        <path
            d="M10.79 9.77a1 1 0 00.71.29.84.84 0 00.38-.08 1 1 0 00.62-.92V5a1 1 0 00-1.5-.84L8.48 5.74a1 1 0 00-.48.73 1 1 0 00.29.82zM19.57 4.72a1 1 0 10-1.44 1.39A8.5 8.5 0 0119 16.82a1 1 0 00.26 1.39 1 1 0 00.57.18 1 1 0 00.82-.44 10.5 10.5 0 00-1.08-13.23z"></path>
        <path
            d="M16.5 12a4.42 4.42 0 01-.5 2 1 1 0 00.44 1.34.93.93 0 00.45.11 1 1 0 00.9-.55 6.4 6.4 0 00.71-2.9 6.49 6.49 0 00-2-4.72 1 1 0 10-1.37 1.45A4.46 4.46 0 0116.5 12zM12.21 12.16L7.4 7.35 3.21 3.16a1 1 0 00-1.42 0 1 1 0 000 1.41L4.72 7.5H2.5a1 1 0 00-1 1v7a1 1 0 001 1h3.21L11 19.84a1 1 0 00.54.16 1 1 0 001-1v-3.72l6.43 6.43a1 1 0 001.42 0 1 1 0 000-1.42z"></path>
    </g>
</svg>